<mxfile host="app.diagrams.net" modified="2023-05-09T21:34:23.825Z" agent="Mozilla/5.0 (Windows NT 10.0; Win64; x64) AppleWebKit/537.36 (KHTML, like Gecko) Chrome/113.0.0.0 Safari/537.36 Edg/113.0.1774.35" version="21.2.3" etag="NfCJEB90tfGFhA-j9aHu" type="github">
  <diagram name="PÃ¡gina-1" id="KFvlpkWe64MeR4uHhNOY">
    <mxGraphModel>
      <root>
        <mxCell id="0" />
        <mxCell id="1" parent="0" />
      </root>
    </mxGraphModel>
  </diagram>
</mxfile>
